<?xml version="1.0" standalone="no"?>
<!DOCTYPE svg PUBLIC "-//W3C//DTD SVG 20010904//EN"
 "http://www.w3.org/TR/2001/REC-SVG-20010904/DTD/svg10.dtd">
<svg version="1.0" xmlns="http://www.w3.org/2000/svg"
 width="700.000000pt" height="700.000000pt" viewBox="0 0 700.000000 700.000000"
 preserveAspectRatio="xMidYMid meet">
<metadata>
Created by potrace 1.14, written by Peter Selinger 2001-2017
</metadata>
<g transform="translate(0.000000,700.000000) scale(0.100000,-0.100000)"
fill="#000000" stroke="none">
<path d="M4694 6090 c-9 -45 -8 -39 -38 -150 -13 -52 -27 -107 -30 -121 -2
-14 -20 -86 -39 -160 -20 -74 -38 -146 -41 -159 -3 -14 -7 -34 -10 -45 -28
-110 -89 -354 -92 -371 -2 -11 -10 -38 -17 -59 l-14 -39 -564 -141 -564 -141
-2 -107 c-1 -59 2 -109 7 -112 7 -4 255 -68 350 -90 29 -7 266 -65 300 -74 19
-5 53 -14 75 -20 22 -5 67 -17 100 -26 33 -8 71 -18 85 -20 44 -9 211 -52 215
-57 3 -2 67 -255 144 -561 77 -306 142 -560 145 -565 6 -10 199 -13 213 -3 5
3 71 256 147 561 76 305 142 559 147 564 5 6 14 11 21 12 24 5 53 12 158 39
58 15 112 28 120 30 8 2 125 31 260 65 135 34 253 64 263 66 9 2 25 6 35 8 81
19 268 68 271 72 2 2 5 49 5 105 1 104 -3 115 -43 124 -45 10 -59 14 -161 40
-58 15 -112 28 -120 30 -8 2 -62 15 -120 30 -58 15 -112 28 -120 30 -18 4 -98
24 -122 30 -10 3 -26 7 -35 9 -10 2 -83 21 -163 41 -80 20 -152 38 -160 40 -8
1 -33 8 -55 14 l-40 10 -98 393 c-54 216 -100 400 -102 408 -5 22 -64 259 -75
300 l-9 35 -110 0 -110 0 -7 -35z"/>
<path d="M1428 4809 c-5 -3 -43 -140 -84 -304 -41 -164 -76 -300 -78 -302 -4
-4 -133 -39 -176 -48 -59 -12 -426 -107 -430 -111 -2 -3 -5 -52 -5 -110 l0
-104 35 -10 c70 -18 525 -132 545 -136 11 -2 25 -10 30 -17 6 -8 43 -147 83
-309 l74 -295 109 0 109 0 9 36 c6 20 19 74 31 121 11 47 26 105 32 130 7 25
28 108 48 184 l35 139 83 23 c45 12 82 20 82 17 0 -3 7 0 15 7 8 7 15 10 15 7
0 -3 15 -1 33 4 17 6 43 12 57 15 14 2 32 7 40 10 8 3 26 8 40 10 23 5 193 48
231 60 13 3 15 22 15 110 -1 114 -2 117 -61 128 -39 7 -547 135 -550 138 -6 7
-145 575 -145 591 0 11 -8 17 -22 17 -13 1 -61 2 -106 3 -46 1 -88 -1 -94 -4z"/>
<path d="M3193 3062 c-14 -2 -25 -12 -28 -25 -3 -12 -47 -188 -98 -392 l-93
-369 -388 -98 c-214 -54 -391 -100 -393 -102 -7 -7 -5 -207 2 -214 4 -4 11 -8
16 -8 5 -1 10 -2 12 -4 1 -1 10 -3 20 -5 55 -10 715 -178 724 -183 8 -6 161
-593 179 -688 2 -11 10 -38 17 -60 l14 -39 106 -1 c98 0 106 1 111 20 6 22
144 565 152 601 3 11 6 25 8 30 1 6 8 36 16 68 7 31 18 61 24 66 6 4 153 43
326 86 173 42 336 84 362 92 26 8 56 15 67 16 26 2 23 -9 25 115 1 84 -2 105
-14 111 -8 5 -184 50 -390 101 -206 51 -377 94 -379 96 -2 1 -46 173 -97 381
-52 208 -98 384 -102 392 -7 13 -139 21 -199 13z"/>
</g>
</svg>
